<?xml version="1.0" standalone="no"?>
<!DOCTYPE svg PUBLIC "-//W3C//DTD SVG 20010904//EN"
 "http://www.w3.org/TR/2001/REC-SVG-20010904/DTD/svg10.dtd">
<svg version="1.0" xmlns="http://www.w3.org/2000/svg"
 width="313.000000pt" height="313.000000pt" viewBox="0 0 313.000000 313.000000"
 preserveAspectRatio="xMidYMid meet">
<metadata>
Created by potrace 1.11, written by Peter Selinger 2001-2013
</metadata>
<g transform="translate(0.000000,313.000000) scale(0.100000,-0.100000)"
fill="#000000" stroke="none">
<path d="M1407 2934 c-2 -2 -24 -7 -48 -10 -101 -14 -255 -76 -344 -137 -169
-118 -285 -334 -288 -536 -4 -275 104 -478 340 -642 76 -53 272 -153 398 -204
185 -76 349 -177 427 -264 75 -83 93 -130 93 -241 0 -81 -4 -102 -25 -144 -52
-101 -159 -175 -289 -200 -198 -38 -424 36 -678 222 -35 25 -71 47 -81 49 -37
5 -80 -36 -141 -134 -78 -126 -79 -145 -11 -206 141 -127 373 -236 580 -272
249 -44 496 -12 687 90 90 48 91 48 170 120 271 245 296 666 56 945 -40 47
-82 86 -168 153 -53 42 -285 166 -380 204 -95 38 -258 112 -310 141 -184 103
-274 224 -277 371 -4 201 164 344 412 350 124 3 301 -55 472 -155 43 -25 86
-47 95 -48 45 -7 73 17 137 114 76 115 83 137 62 178 -36 69 -299 194 -501
238 -72 15 -376 30 -388 18z"/>
</g>
</svg>
